<?xml version="1.0" standalone="no"?>
<!DOCTYPE svg PUBLIC "-//W3C//DTD SVG 20010904//EN"
 "http://www.w3.org/TR/2001/REC-SVG-20010904/DTD/svg10.dtd">
<svg version="1.0" xmlns="http://www.w3.org/2000/svg"
 width="700.000000pt" height="700.000000pt" viewBox="0 0 700.000000 700.000000"
 preserveAspectRatio="xMidYMid meet">
<metadata>
Created by potrace 1.11, written by Peter Selinger 2001-2013
</metadata>
<g transform="translate(0.000000,700.000000) scale(0.100000,-0.100000)"
fill="#000000" stroke="none">
<path d="M3318 6775 c-2 -2 -39 -5 -83 -8 -77 -6 -223 -23 -275 -33 -14 -2
-41 -7 -60 -10 -105 -16 -456 -112 -525 -143 -11 -5 -67 -28 -124 -51 -185
-74 -356 -164 -530 -277 -96 -62 -264 -184 -281 -202 -3 -3 -27 -24 -55 -45
-92 -72 -369 -360 -459 -476 -245 -317 -413 -628 -533 -984 -40 -120 -95 -325
-108 -406 -3 -19 -8 -42 -10 -50 -2 -8 -6 -32 -9 -52 -3 -21 -8 -53 -11 -70
-36 -236 -40 -643 -10 -863 6 -47 25 -168 30 -190 2 -11 6 -36 9 -56 10 -68
74 -304 114 -419 79 -231 184 -451 316 -665 44 -71 84 -134 88 -140 5 -5 40
-52 79 -103 318 -425 745 -774 1216 -993 147 -68 141 -66 203 -90 122 -47 292
-102 420 -134 82 -20 274 -55 390 -70 203 -26 569 -26 780 0 19 3 55 7 80 10
25 3 52 8 60 10 8 2 32 6 54 10 57 8 247 52 279 64 15 6 27 9 27 6 0 -2 19 3
43 11 23 9 49 17 57 19 26 6 193 65 227 81 17 8 34 14 37 14 12 0 266 124 350
172 320 179 633 434 859 698 45 52 84 97 88 100 19 16 165 223 232 330 91 145
206 371 261 515 21 55 42 109 46 120 41 97 113 376 139 535 35 208 44 322 45
535 1 254 -13 427 -49 615 -19 98 -27 139 -35 165 -5 17 -11 43 -14 58 -7 38
-61 213 -93 302 -14 39 -32 88 -40 110 -53 145 -249 505 -360 660 -156 217
-425 508 -593 641 -41 32 -77 61 -80 65 -3 3 -52 39 -110 80 -206 148 -481
297 -695 378 -33 13 -69 27 -80 32 -139 60 -537 154 -745 175 -36 3 -74 8 -85
11 -22 4 -472 12 -477 8z"/>
</g>
</svg>
